<svg width="82" height="26" viewBox="0 0 82 26" fill="none" xmlns="http://www.w3.org/2000/svg">
<rect width="82" height="26" rx="6" fill="#75C768"/>
<path d="M10.9694 6.5C10.8367 6.5 10.7041 6.565 10.5714 6.63L5.33163 9.49C5.13265 9.62 5 9.815 5 10.075V15.925C5 16.185 5.13265 16.38 5.33163 16.51L10.5714 19.37C10.7041 19.435 10.8367 19.5 10.9694 19.5C11.102 19.5 11.2347 19.435 11.3673 19.37L11.9643 19.045C11.7653 18.655 11.699 18.2 11.6327 17.745V13.39L15.6122 11.18V13.65C16.0765 13.65 16.5408 13.715 16.9388 13.845V10.075C16.9388 9.815 16.8061 9.62 16.6071 9.49L11.3673 6.63C11.2347 6.565 11.102 6.5 10.9694 6.5ZM10.9694 7.93L14.949 10.075L13.6224 10.79L9.70918 8.58L10.9694 7.93ZM8.38265 9.295L12.2959 11.57L10.9694 12.285L6.9898 10.075L8.38265 9.295ZM6.32653 11.18L10.3061 13.39V17.745L6.32653 15.535V11.18ZM17.1378 15.47L14.75 17.81L13.6888 16.77L12.9592 17.55L14.8163 19.5L18 16.38L17.1378 15.47Z" fill="#FEFEFE"/>
<path d="M25.2102 17H22.6321V9.72727H25.2315C25.9631 9.72727 26.5928 9.87287 27.1207 10.1641C27.6487 10.4529 28.0547 10.8684 28.3388 11.4105C28.6252 11.9527 28.7685 12.6013 28.7685 13.3565C28.7685 14.1141 28.6252 14.7652 28.3388 15.3097C28.0547 15.8542 27.6463 16.272 27.1136 16.5632C26.5833 16.8544 25.9489 17 25.2102 17ZM24.1697 15.6825H25.1463C25.6009 15.6825 25.9832 15.602 26.2933 15.4411C26.6058 15.2777 26.8402 15.0256 26.9964 14.6847C27.1551 14.3414 27.2344 13.8987 27.2344 13.3565C27.2344 12.8191 27.1551 12.38 26.9964 12.0391C26.8402 11.6982 26.607 11.4472 26.2969 11.2862C25.9867 11.1252 25.6044 11.0447 25.1499 11.0447H24.1697V15.6825ZM29.8075 17V9.72727H34.7081V10.995H31.3451V12.728H34.4559V13.9957H31.3451V15.7322H34.7223V17H29.8075ZM35.8305 17V9.72727H37.3682V15.7322H40.4861V17H35.8305ZM42.942 9.72727V17H41.4044V9.72727H42.942ZM45.421 9.72727L47.1788 15.2528H47.2463L49.0077 9.72727H50.7122L48.2051 17H46.2236L43.7129 9.72727H45.421ZM51.4876 17V9.72727H56.3881V10.995H53.0252V12.728H56.136V13.9957H53.0252V15.7322H56.4023V17H51.4876ZM57.5106 17V9.72727H60.3799C60.9292 9.72727 61.3979 9.82552 61.7862 10.022C62.1768 10.2161 62.4739 10.492 62.6775 10.8494C62.8835 11.2045 62.9865 11.6224 62.9865 12.103C62.9865 12.5859 62.8823 13.0014 62.674 13.3494C62.4656 13.6951 62.1638 13.9602 61.7684 14.1449C61.3754 14.3295 60.8996 14.4219 60.3409 14.4219H58.4197V13.1861H60.0923C60.3859 13.1861 60.6297 13.1458 60.8238 13.0653C61.018 12.9848 61.1624 12.8641 61.2571 12.7031C61.3541 12.5421 61.4027 12.3421 61.4027 12.103C61.4027 11.8615 61.3541 11.6579 61.2571 11.4922C61.1624 11.3265 61.0168 11.201 60.8203 11.1158C60.6261 11.0282 60.3811 10.9844 60.0852 10.9844H59.0483V17H57.5106ZM61.4382 13.6903L63.2457 17H61.5483L59.7798 13.6903H61.4382ZM63.9731 17V9.72727H68.8737V10.995H65.5108V12.728H68.6216V13.9957H65.5108V15.7322H68.8879V17H63.9731ZM72.5743 17H69.9962V9.72727H72.5956C73.3271 9.72727 73.9569 9.87287 74.4848 10.1641C75.0127 10.4529 75.4188 10.8684 75.7028 11.4105C75.9893 11.9527 76.1325 12.6013 76.1325 13.3565C76.1325 14.1141 75.9893 14.7652 75.7028 15.3097C75.4188 15.8542 75.0104 16.272 74.4777 16.5632C73.9474 16.8544 73.3129 17 72.5743 17ZM71.5338 15.6825H72.5104C72.9649 15.6825 73.3473 15.602 73.6574 15.4411C73.9699 15.2777 74.2043 15.0256 74.3605 14.6847C74.5191 14.3414 74.5984 13.8987 74.5984 13.3565C74.5984 12.8191 74.5191 12.38 74.3605 12.0391C74.2043 11.6982 73.9711 11.4472 73.6609 11.2862C73.3508 11.1252 72.9685 11.0447 72.5139 11.0447H71.5338V15.6825Z" fill="#FEFEFE"/>
</svg>
