<svg width="51" height="51" viewBox="0 0 51 51" fill="none" xmlns="http://www.w3.org/2000/svg">
<rect width="51" height="51" rx="25.5" fill="#DE5654"/>
<g clip-path="url(#clip0_169_1137)">
<path fill-rule="evenodd" clip-rule="evenodd" d="M26.1376 19.975C22.7635 19.975 20.0282 22.7103 20.0282 26.0844C20.0282 29.4585 22.7635 32.1937 26.1376 32.1937C29.5117 32.1937 32.247 29.4585 32.247 26.0844C32.247 22.7103 29.5117 19.975 26.1376 19.975ZM22.472 26.0844C22.472 24.0599 24.1131 22.4187 26.1376 22.4187C28.1621 22.4187 29.8032 24.0599 29.8032 26.0844C29.8032 28.1088 28.1621 29.75 26.1376 29.75C24.1131 29.75 22.472 28.1088 22.472 26.0844Z" fill="#FEFEFE"/>
<path fill-rule="evenodd" clip-rule="evenodd" d="M22.472 12.6437C22.0634 12.6437 21.6819 12.8479 21.4553 13.1878L19.3743 16.3094H15.1407C14.1685 16.3094 13.2362 16.6956 12.5487 17.383C11.8613 18.0704 11.4751 19.0028 11.4751 19.975V33.4156C11.4751 34.3878 11.8613 35.3202 12.5487 36.0076C13.2362 36.695 14.1685 37.0812 15.1407 37.0812H37.1345C38.1067 37.0812 39.039 36.695 39.7265 36.0076C40.4139 35.3202 40.8001 34.3878 40.8001 33.4156V19.975C40.8001 19.0028 40.4139 18.0704 39.7265 17.383C39.039 16.6956 38.1067 16.3094 37.1345 16.3094H32.9009L30.8199 13.1878C30.5933 12.8479 30.2118 12.6437 29.8032 12.6437H22.472ZM21.0449 18.209L23.1259 15.0875H29.1493L31.2303 18.209C31.4569 18.5489 31.8384 18.7531 32.247 18.7531H37.1345C37.4585 18.7531 37.7693 18.8819 37.9985 19.111C38.2276 19.3401 38.3563 19.6509 38.3563 19.975V33.4156C38.3563 33.7397 38.2276 34.0505 37.9985 34.2796C37.7693 34.5088 37.4585 34.6375 37.1345 34.6375H15.1407C14.8167 34.6375 14.5059 34.5088 14.2767 34.2796C14.0476 34.0505 13.9188 33.7397 13.9188 33.4156V19.975C13.9188 19.6509 14.0476 19.3401 14.2767 19.111C14.5059 18.8819 14.8167 18.7531 15.1407 18.7531H20.0282C20.4368 18.7531 20.8183 18.5489 21.0449 18.209Z" fill="#FEFEFE"/>
</g>
<defs>
<clipPath id="clip0_169_1137">
<rect width="29.325" height="29.325" fill="white" transform="translate(11.4751 10.2)"/>
</clipPath>
</defs>
</svg>
