<svg width="52" height="52" viewBox="0 0 52 52" fill="none" xmlns="http://www.w3.org/2000/svg">
<rect width="52" height="52" rx="26" fill="#EDF0F7"/>
<path d="M32.6733 36.1111L36.6888 32.1244L35.4755 30.9111L32.6733 33.6555L31.5466 32.5288L30.3333 33.7711L32.6733 36.1111ZM19.6444 23.1111H33.5111V20.8H19.6444V23.1111ZM33.5111 39.2888C31.9125 39.2888 30.5502 38.7253 29.4239 37.5983C28.2976 36.4712 27.7341 35.1088 27.7333 33.5111C27.7325 31.9133 28.296 30.5509 29.4239 29.4239C30.5517 28.2968 31.9141 27.7333 33.5111 27.7333C35.108 27.7333 36.4708 28.2968 37.5994 29.4239C38.728 30.5509 39.2912 31.9133 39.2888 33.5111C39.2865 35.1088 38.723 36.4716 37.5983 37.5994C36.4735 38.7272 35.1111 39.2904 33.5111 39.2888ZM16.1777 38.1333V18.4888C16.1777 17.8533 16.4042 17.3094 16.8572 16.8572C17.3102 16.405 17.8541 16.1785 18.4888 16.1777H34.6666C35.3022 16.1777 35.8464 16.4042 36.2994 16.8572C36.7524 17.3102 36.9785 17.8541 36.9777 18.4888V26.2022C36.6118 26.0288 36.2363 25.8844 35.8511 25.7688C35.4659 25.6533 35.0711 25.5666 34.6666 25.5088V18.4888H18.4888V34.7244H25.5088C25.6051 35.3214 25.7546 35.8896 25.9572 36.4288C26.1598 36.9681 26.4244 37.4785 26.7511 37.96L26.5777 38.1333L24.8444 36.4L23.1111 38.1333L21.3777 36.4L19.6444 38.1333L17.9111 36.4L16.1777 38.1333ZM19.6444 32.3555H25.5088C25.5666 31.9511 25.6533 31.5563 25.7688 31.1711C25.8844 30.7859 26.0288 30.4103 26.2022 30.0444H19.6444V32.3555ZM19.6444 27.7333H27.8488C28.5807 27.0207 29.4331 26.4572 30.4061 26.0427C31.3791 25.6283 32.4141 25.4214 33.5111 25.4222H19.6444V27.7333Z" fill="#717D96"/>
</svg>
