<svg width="52" height="52" viewBox="0 0 52 52" fill="none" xmlns="http://www.w3.org/2000/svg">
<rect width="52" height="52" rx="26" fill="#75C768"/>
<path d="M24.2666 23.9777L26.5777 22.8222L28.8888 23.9777V18.4888H24.2666V23.9777ZM20.8 32.3555V30.0444H26.5777V32.3555H20.8ZM18.4888 36.9777C17.8533 36.9777 17.3094 36.7516 16.8572 36.2994C16.405 35.8472 16.1785 35.3029 16.1777 34.6666V18.4888C16.1777 17.8533 16.4042 17.3094 16.8572 16.8572C17.3102 16.405 17.8541 16.1785 18.4888 16.1777H34.6666C35.3022 16.1777 35.8464 16.4042 36.2994 16.8572C36.7524 17.3102 36.9785 17.8541 36.9777 18.4888V34.6666C36.9777 35.3022 36.7516 35.8464 36.2994 36.2994C35.8472 36.7524 35.3029 36.9785 34.6666 36.9777H18.4888ZM18.4888 34.6666H34.6666V18.4888H31.2V27.7333L26.5777 25.4222L21.9555 27.7333V18.4888H18.4888V34.6666Z" fill="#FEFEFE"/>
</svg>
