<svg width="52" height="52" viewBox="0 0 52 52" fill="none" xmlns="http://www.w3.org/2000/svg">
<rect width="52" height="52" rx="26" fill="#75C768"/>
<path d="M33.5111 34.0889C34.4703 34.0889 35.2445 33.3147 35.2445 32.3556C35.2445 31.3965 34.4703 30.6223 33.5111 30.6223C32.552 30.6223 31.7778 31.3965 31.7778 32.3556C31.7778 33.3147 32.552 34.0889 33.5111 34.0889ZM35.2445 23.6889H32.3556V26.5778H37.5094L35.2445 23.6889ZM19.6445 34.0889C20.6036 34.0889 21.3778 33.3147 21.3778 32.3556C21.3778 31.3965 20.6036 30.6223 19.6445 30.6223C18.6854 30.6223 17.9111 31.3965 17.9111 32.3556C17.9111 33.3147 18.6854 34.0889 19.6445 34.0889ZM35.8223 21.9556L39.2889 26.5778V32.3556H36.9778C36.9778 34.2738 35.4294 35.8223 33.5111 35.8223C31.5929 35.8223 30.0445 34.2738 30.0445 32.3556H23.1111C23.1111 34.2738 21.5627 35.8223 19.6445 35.8223C17.7263 35.8223 16.1778 34.2738 16.1778 32.3556H13.8667V19.6445C13.8667 18.3618 14.8951 17.3334 16.1778 17.3334H32.3556V21.9556H35.8223ZM16.1778 19.6445V30.0445H17.056C17.6916 29.3396 18.616 28.8889 19.6445 28.8889C20.6729 28.8889 21.5974 29.3396 22.2329 30.0445H30.0445V19.6445H16.1778ZM24.2667 20.8L28.3111 24.8445L24.2667 28.8889V26H18.4889V23.6889H24.2667V20.8Z" fill="#FEFEFE"/>
</svg>
