<svg width="52" height="52" viewBox="0 0 52 52" fill="none" xmlns="http://www.w3.org/2000/svg">
<rect width="52" height="52" rx="26" fill="#EDF0F7"/>
<path d="M25.7288 16.1777C25.5165 16.1777 25.3043 16.2817 25.092 16.3857L16.7083 20.9617C16.39 21.1697 16.1777 21.4817 16.1777 21.8977V31.2577C16.1777 31.6737 16.39 31.9857 16.7083 32.1937L25.092 36.7697C25.3043 36.8737 25.5165 36.9777 25.7288 36.9777C25.941 36.9777 26.1532 36.8737 26.3655 36.7697L27.3206 36.2497C27.0022 35.6257 26.8961 34.8977 26.79 34.1697V27.2017L33.1573 23.6657V27.6177C33.9002 27.6177 34.643 27.7217 35.2798 27.9297V21.8977C35.2798 21.4817 35.0675 21.1697 34.7492 20.9617L26.3655 16.3857C26.1532 16.2817 25.941 16.1777 25.7288 16.1777ZM25.7288 18.4657L32.0961 21.8977L29.9737 23.0417L23.7124 19.5057L25.7288 18.4657ZM21.59 20.6497L27.8512 24.2897L25.7288 25.4337L19.3614 21.8977L21.59 20.6497ZM18.3002 23.6657L24.6675 27.2017V34.1697L18.3002 30.6337V23.6657ZM35.5981 30.5297L31.7777 34.2737L30.0798 32.6097L28.9124 33.8577L31.8839 36.9777L36.9777 31.9857L35.5981 30.5297Z" fill="#717D96"/>
</svg>
