<svg width="16" height="16" viewBox="0 0 16 16" fill="none" xmlns="http://www.w3.org/2000/svg">
<path fill-rule="evenodd" clip-rule="evenodd" d="M7.99997 0.666626C6.76229 0.666626 5.57531 1.15829 4.70014 2.03346C3.82497 2.90863 3.3333 4.09562 3.3333 5.33329C3.3333 7.5684 2.85526 8.95638 2.41471 9.76406C2.19351 10.1696 1.97812 10.4356 1.8285 10.5935C1.75352 10.6727 1.6946 10.7252 1.65912 10.7547C1.64137 10.7695 1.62947 10.7786 1.62434 10.7824L1.62243 10.7838C1.38344 10.948 1.27768 11.2483 1.36191 11.5265C1.44704 11.8077 1.70619 12 1.99997 12H14C14.2937 12 14.5529 11.8077 14.638 11.5265C14.7223 11.2483 14.6165 10.948 14.3775 10.7838L14.3756 10.7824C14.3705 10.7786 14.3586 10.7695 14.3408 10.7547C14.3053 10.7252 14.2464 10.6727 14.1714 10.5935C14.0218 10.4356 13.8064 10.1696 13.5852 9.76406C13.1447 8.95638 12.6666 7.5684 12.6666 5.33329C12.6666 4.09562 12.175 2.90863 11.2998 2.03346C10.4246 1.15829 9.23765 0.666626 7.99997 0.666626ZM12.4147 10.4025C12.4654 10.4955 12.5164 10.5835 12.5671 10.6666H3.43285C3.48358 10.5835 3.5345 10.4955 3.58523 10.4025C4.14468 9.37687 4.66664 7.76485 4.66664 5.33329C4.66664 4.44924 5.01783 3.60139 5.64295 2.97627C6.26807 2.35115 7.11592 1.99996 7.99997 1.99996C8.88403 1.99996 9.73187 2.35115 10.357 2.97627C10.9821 3.60139 11.3333 4.44924 11.3333 5.33329C11.3333 7.76485 11.8553 9.37687 12.4147 10.4025Z" fill="#2D3648"/>
<path d="M7.42332 13.6654C7.23857 13.347 6.83062 13.2385 6.51214 13.4233C6.19365 13.608 6.08524 14.016 6.26998 14.3345C6.44579 14.6376 6.69814 14.8891 7.00176 15.064C7.30537 15.2389 7.6496 15.3309 7.99998 15.3309C8.35036 15.3309 8.69459 15.2389 8.99821 15.064C9.30183 14.8891 9.55417 14.6376 9.72998 14.3345C9.91473 14.016 9.80632 13.608 9.48783 13.4233C9.16935 13.2385 8.7614 13.347 8.57665 13.6654C8.51805 13.7665 8.43393 13.8503 8.33273 13.9086C8.23152 13.9669 8.11678 13.9976 7.99998 13.9976C7.88319 13.9976 7.76845 13.9669 7.66724 13.9086C7.56604 13.8503 7.48192 13.7665 7.42332 13.6654Z" fill="#2D3648"/>
</svg>
