<svg width="22" height="22" viewBox="0 0 22 22" fill="none" xmlns="http://www.w3.org/2000/svg">
<path fill-rule="evenodd" clip-rule="evenodd" d="M11 0C4.92487 0 0 4.92487 0 11C0 17.0751 4.92487 22 11 22C17.0751 22 22 17.0751 22 11C22 5.13737 17.4136 0.34594 11.6331 0.0179155C11.5907 0.00623786 11.5461 0 11.5 0C11.4702 0 11.441 0.00260448 11.4127 0.00759816C11.2757 0.0025475 11.1382 0 11 0ZM2 11C2 6.02944 6.02944 2 11 2C15.9706 2 20 6.02944 20 11C20 15.9706 15.9706 20 11 20C6.02944 20 2 15.9706 2 11Z" fill="#9FAAC0"/>
</svg>
