<svg width="20" height="21" viewBox="0 0 20 21" fill="none" xmlns="http://www.w3.org/2000/svg">
<path d="M10.8335 4.66659C10.8335 4.20635 10.4604 3.83325 10.0002 3.83325C9.53993 3.83325 9.16683 4.20635 9.16683 4.66659V9.66659H4.16683C3.70659 9.66659 3.3335 10.0397 3.3335 10.4999C3.3335 10.9602 3.70659 11.3333 4.16683 11.3333H9.16683V16.3333C9.16683 16.7935 9.53993 17.1666 10.0002 17.1666C10.4604 17.1666 10.8335 16.7935 10.8335 16.3333V11.3333H15.8335C16.2937 11.3333 16.6668 10.9602 16.6668 10.4999C16.6668 10.0397 16.2937 9.66659 15.8335 9.66659H10.8335V4.66659Z" fill="#2D3648"/>
</svg>
