<svg width="23" height="24" viewBox="0 0 23 24" fill="none" xmlns="http://www.w3.org/2000/svg">
<path d="M21.0678 10.0833C21.0324 8.82692 20.9135 8.02575 20.511 7.34246C19.938 6.36975 18.9068 5.82829 16.8454 4.74729L14.9288 3.74104C13.2459 2.85842 12.4045 2.41663 11.4998 2.41663C10.5952 2.41663 9.75375 2.85746 8.07092 3.74104L6.15425 4.74729C4.09288 5.82829 3.06171 6.36975 2.48863 7.34246C1.9165 8.31421 1.9165 9.52458 1.9165 11.9444V12.0565C1.9165 14.4753 1.9165 15.6857 2.48863 16.6575C3.06171 17.6302 4.09288 18.1716 6.15425 19.2536L8.07092 20.2589C9.75375 21.1415 10.5952 21.5833 11.4998 21.5833C12.4045 21.5833 13.2459 21.1425 14.9288 20.2589L16.8454 19.2526C18.9068 18.1707 19.938 17.6302 20.511 16.6575C20.9135 15.9742 21.0324 15.173 21.0678 13.9166M20.1248 7.68746L16.2915 9.60413M16.2915 9.60413L15.8123 9.84371L11.4998 12M16.2915 9.60413V12.9583M16.2915 9.60413L7.18734 4.81246M11.4998 12L2.87484 7.68746M11.4998 12V21.1041" stroke="#2D3648" stroke-width="2" stroke-linecap="round"/>
</svg>
