<svg width="15" height="10" viewBox="0 0 15 10" fill="none" xmlns="http://www.w3.org/2000/svg">
<path d="M11.1682 9.0625C11.6963 9.0625 12.1227 8.64375 12.1227 8.125C12.1227 7.60625 11.6963 7.1875 11.1682 7.1875C10.64 7.1875 10.2136 7.60625 10.2136 8.125C10.2136 8.64375 10.64 9.0625 11.1682 9.0625ZM12.1227 3.4375H10.5318V5H13.37L12.1227 3.4375ZM3.53179 9.0625C4.05998 9.0625 4.48634 8.64375 4.48634 8.125C4.48634 7.60625 4.05998 7.1875 3.53179 7.1875C3.00361 7.1875 2.57725 7.60625 2.57725 8.125C2.57725 8.64375 3.00361 9.0625 3.53179 9.0625ZM12.4409 2.5L14.35 5V8.125H13.0772C13.0772 9.1625 12.2245 10 11.1682 10C10.1118 10 9.25907 9.1625 9.25907 8.125H5.44088C5.44088 9.1625 4.58816 10 3.53179 10C2.47543 10 1.6227 9.1625 1.6227 8.125H0.349976V1.25C0.349976 0.55625 0.916339 0 1.6227 0H10.5318V2.5H12.4409ZM1.6227 1.25V6.875H2.10634C2.45634 6.49375 2.96543 6.25 3.53179 6.25C4.09816 6.25 4.60725 6.49375 4.95725 6.875H9.25907V1.25H1.6227ZM6.07725 1.875L8.30452 4.0625L6.07725 6.25V4.6875H2.89543V3.4375H6.07725V1.875Z" fill="#FEFEFE"/>
</svg>
