<svg width="17" height="17" viewBox="0 0 17 17" fill="none" xmlns="http://www.w3.org/2000/svg">
<path fill-rule="evenodd" clip-rule="evenodd" d="M4.25002 7.08333V4.95833C4.25002 3.83116 4.69779 2.75016 5.49482 1.95313C6.29185 1.1561 7.37285 0.708333 8.50002 0.708333C9.62719 0.708333 10.7082 1.1561 11.5052 1.95313C12.3023 2.75016 12.75 3.83116 12.75 4.95833V7.08333H13.4584C14.632 7.08333 15.5834 8.03473 15.5834 9.20833V14.1667C15.5834 15.3403 14.632 16.2917 13.4584 16.2917H3.54169C2.36808 16.2917 1.41669 15.3403 1.41669 14.1667V9.20833C1.41669 8.03473 2.36808 7.08333 3.54169 7.08333H4.25002ZM6.49655 2.95486C7.0279 2.42351 7.74857 2.125 8.50002 2.125C9.25147 2.125 9.97214 2.42351 10.5035 2.95486C11.0348 3.48622 11.3334 4.20689 11.3334 4.95833V7.08333H5.66669V4.95833C5.66669 4.20689 5.9652 3.48622 6.49655 2.95486ZM3.54169 8.5C3.15049 8.5 2.83335 8.81713 2.83335 9.20833V14.1667C2.83335 14.5579 3.15049 14.875 3.54169 14.875H13.4584C13.8496 14.875 14.1667 14.5579 14.1667 14.1667V9.20833C14.1667 8.81713 13.8496 8.5 13.4584 8.5H3.54169Z" fill="#2D3648"/>
</svg>
