<svg width="13" height="14" viewBox="0 0 13 14" fill="none" xmlns="http://www.w3.org/2000/svg">
<path d="M5.96939 0.5C5.83673 0.5 5.70408 0.565 5.57143 0.63L0.331633 3.49C0.132653 3.62 0 3.815 0 4.075V9.925C0 10.185 0.132653 10.38 0.331633 10.51L5.57143 13.37C5.70408 13.435 5.83673 13.5 5.96939 13.5C6.10204 13.5 6.23469 13.435 6.36735 13.37L6.96429 13.045C6.76531 12.655 6.69898 12.2 6.63265 11.745V7.39L10.6122 5.18V7.65C11.0765 7.65 11.5408 7.715 11.9388 7.845V4.075C11.9388 3.815 11.8061 3.62 11.6071 3.49L6.36735 0.63C6.23469 0.565 6.10204 0.5 5.96939 0.5ZM5.96939 1.93L9.94898 4.075L8.62245 4.79L4.70918 2.58L5.96939 1.93ZM3.38265 3.295L7.29592 5.57L5.96939 6.285L1.9898 4.075L3.38265 3.295ZM1.32653 5.18L5.30612 7.39V11.745L1.32653 9.535V5.18ZM12.1378 9.47L9.75 11.81L8.68878 10.77L7.95918 11.55L9.81633 13.5L13 10.38L12.1378 9.47Z" fill="#FEFEFE"/>
</svg>
