<svg width="16" height="15" viewBox="0 0 16 15" fill="none" xmlns="http://www.w3.org/2000/svg">
<path d="M12.3584 4.19194C12.6025 3.94786 12.6025 3.55214 12.3584 3.30806C12.1144 3.06398 11.7186 3.06398 11.4746 3.30806L8.1665 6.61612L4.85845 3.30806C4.61437 3.06398 4.21864 3.06398 3.97456 3.30806C3.73048 3.55214 3.73048 3.94786 3.97456 4.19194L7.28262 7.5L3.97456 10.8081C3.73048 11.0521 3.73048 11.4479 3.97456 11.6919C4.21864 11.936 4.61437 11.936 4.85845 11.6919L8.1665 8.38388L11.4746 11.6919C11.7186 11.936 12.1144 11.936 12.3584 11.6919C12.6025 11.4479 12.6025 11.0521 12.3584 10.8081L9.05039 7.5L12.3584 4.19194Z" fill="#2D3648"/>
</svg>
