<svg width="23" height="22" viewBox="0 0 23 22" fill="none" xmlns="http://www.w3.org/2000/svg">
<path id="Shape" fill-rule="evenodd" clip-rule="evenodd" d="M11.5316 0C5.45648 0 0.531616 4.92487 0.531616 11C0.531616 17.0751 5.45648 22 11.5316 22C17.6067 22 22.5316 17.0751 22.5316 11C22.5316 5.13737 17.9453 0.34594 12.1647 0.0179155C12.1224 0.00623786 12.0777 0 12.0316 0C12.0018 0 11.9727 0.00260448 11.9443 0.00759816C11.8074 0.0025475 11.6698 0 11.5316 0ZM2.53162 11C2.53162 6.02944 6.56105 2 11.5316 2C16.5022 2 20.5316 6.02944 20.5316 11C20.5316 15.9706 16.5022 20 11.5316 20C6.56105 20 2.53162 15.9706 2.53162 11Z" fill="#9FAAC0"/>
</svg>
