<svg width="23" height="24" viewBox="0 0 23 24" fill="none" xmlns="http://www.w3.org/2000/svg">
<path d="M11.3333 1C8.87407 0.999879 6.51413 1.95652 4.76645 3.662C3.01877 5.36748 2.02459 7.68396 2 10.108C2 16.41 10.225 23.4249 10.575 23.7239C10.7863 23.9021 11.0553 24 11.3333 24C11.6114 24 11.8803 23.9021 12.0917 23.7239C12.5 23.4249 20.6667 16.41 20.6667 10.108C20.6421 7.68396 19.6479 5.36748 17.9002 3.662C16.1525 1.95652 13.7926 0.999879 11.3333 1ZM11.3333 21.2974C9.385 19.4689 4.33333 14.3975 4.33333 10.108C4.33333 8.27798 5.07083 6.52295 6.38359 5.22895C7.69634 3.93495 9.47682 3.20799 11.3333 3.20799C13.1898 3.20799 14.9703 3.93495 16.2831 5.22895C17.5958 6.52295 18.3333 8.27798 18.3333 10.108C18.3333 14.363 13.2817 19.4689 11.3333 21.2974Z" fill="#2D3648"/>
<path d="M11.3333 5.6001C10.5257 5.6001 9.73626 5.83616 9.06476 6.27843C8.39326 6.7207 7.86988 7.34932 7.56083 8.08479C7.25177 8.82026 7.17091 9.62955 7.32846 10.4103C7.48602 11.1911 7.87492 11.9083 8.44598 12.4712C9.01705 13.0341 9.74463 13.4174 10.5367 13.5727C11.3288 13.728 12.1498 13.6483 12.896 13.3437C13.6421 13.039 14.2798 12.5232 14.7285 11.8612C15.1772 11.1993 15.4167 10.4212 15.4167 9.62508C15.4167 8.55759 14.9865 7.53382 14.2207 6.77899C13.4549 6.02416 12.4163 5.6001 11.3333 5.6001ZM11.3333 11.3501C10.9872 11.3501 10.6489 11.2489 10.3611 11.0594C10.0733 10.8698 9.849 10.6004 9.71655 10.2852C9.58409 9.97001 9.54944 9.62317 9.61696 9.28855C9.68449 8.95394 9.85116 8.64657 10.0959 8.40533C10.3406 8.16408 10.6525 7.99979 10.9919 7.93324C11.3314 7.86668 11.6833 7.90084 12.003 8.0314C12.3228 8.16196 12.5961 8.38306 12.7884 8.66673C12.9807 8.9504 13.0833 9.28391 13.0833 9.62508C13.0833 10.0826 12.899 10.5213 12.5708 10.8448C12.2426 11.1683 11.7975 11.3501 11.3333 11.3501Z" fill="#2D3648"/>
</svg>
