<svg width="18" height="18" viewBox="0 0 18 18" fill="none" xmlns="http://www.w3.org/2000/svg">
<path fill-rule="evenodd" clip-rule="evenodd" d="M7.99997 2.66663C6.76229 2.66663 5.57531 3.15829 4.70014 4.03346C3.82497 4.90863 3.3333 6.09562 3.3333 7.33329C3.3333 9.5684 2.85526 10.9564 2.41471 11.7641C2.19351 12.1696 1.97812 12.4356 1.8285 12.5935C1.75352 12.6727 1.6946 12.7252 1.65912 12.7547C1.64137 12.7695 1.62947 12.7786 1.62434 12.7824L1.62243 12.7838C1.38344 12.948 1.27768 13.2483 1.36191 13.5265C1.44704 13.8077 1.70619 14 1.99997 14H14C14.2937 14 14.5529 13.8077 14.638 13.5265C14.7223 13.2483 14.6165 12.948 14.3775 12.7838L14.3756 12.7824C14.3705 12.7786 14.3586 12.7695 14.3408 12.7547C14.3053 12.7252 14.2464 12.6727 14.1714 12.5935C14.0218 12.4356 13.8064 12.1696 13.5852 11.7641C13.1447 10.9564 12.6666 9.5684 12.6666 7.33329C12.6666 6.09562 12.175 4.90863 11.2998 4.03346C10.4246 3.15829 9.23765 2.66663 7.99997 2.66663ZM12.4147 12.4025C12.4654 12.4955 12.5164 12.5835 12.5671 12.6666H3.43285C3.48358 12.5835 3.5345 12.4955 3.58523 12.4025C4.14468 11.3769 4.66664 9.76485 4.66664 7.33329C4.66664 6.44924 5.01783 5.60139 5.64295 4.97627C6.26807 4.35115 7.11592 3.99996 7.99997 3.99996C8.88403 3.99996 9.73187 4.35115 10.357 4.97627C10.9821 5.60139 11.3333 6.44924 11.3333 7.33329C11.3333 9.76485 11.8553 11.3769 12.4147 12.4025Z" fill="#2D3648"/>
<path d="M7.42332 15.6654C7.23857 15.347 6.83062 15.2385 6.51214 15.4233C6.19365 15.608 6.08524 16.016 6.26998 16.3345C6.44579 16.6376 6.69814 16.8891 7.00176 17.064C7.30537 17.2389 7.6496 17.3309 7.99998 17.3309C8.35036 17.3309 8.69459 17.2389 8.99821 17.064C9.30183 16.8891 9.55417 16.6376 9.72998 16.3345C9.91473 16.016 9.80632 15.608 9.48783 15.4233C9.16935 15.2385 8.7614 15.347 8.57665 15.6654C8.51805 15.7665 8.43393 15.8503 8.33273 15.9086C8.23152 15.9669 8.11678 15.9976 7.99998 15.9976C7.88319 15.9976 7.76845 15.9669 7.66724 15.9086C7.56604 15.8503 7.48192 15.7665 7.42332 15.6654Z" fill="#2D3648"/>
<path d="M18 4C18 6.20914 16.2091 8 14 8C11.7909 8 10 6.20914 10 4C10 1.79086 11.7909 0 14 0C16.2091 0 18 1.79086 18 4Z" fill="#DE5654"/>
</svg>
