<svg width="23" height="22" viewBox="0 0 23 22" fill="none" xmlns="http://www.w3.org/2000/svg">
<g id="Shape">
<path d="M9.54819 2.22128C11.4413 1.79357 13.4219 1.98926 15.1946 2.77915C15.6991 3.00393 16.2903 2.7772 16.5151 2.27272C16.7398 1.76825 16.5131 1.17708 16.0086 0.952297C13.8419 -0.0131332 11.4212 -0.252303 9.10742 0.270457C6.79368 0.793217 4.7109 2.0499 3.16972 3.85308C1.62854 5.65625 0.711535 7.90932 0.555461 10.2762C0.399387 12.6432 1.01261 14.9971 2.30367 16.9871C3.59474 18.977 5.49447 20.4963 7.71953 21.3183C9.9446 22.1404 12.3758 22.2211 14.6505 21.5486C16.9252 20.876 18.9216 19.4862 20.3419 17.5863C21.7622 15.6864 22.5303 13.3784 22.5316 11.0063V10.0857C22.5316 9.53344 22.0839 9.08572 21.5316 9.08572C20.9793 9.08572 20.5316 9.53344 20.5316 10.0857V11.0052C20.5305 12.9459 19.9021 14.8344 18.74 16.3888C17.578 17.9432 15.9446 19.0804 14.0834 19.6307C12.2223 20.1809 10.2332 20.1149 8.41264 19.4423C6.59213 18.7697 5.03781 17.5266 3.98148 15.8985C2.92516 14.2704 2.42343 12.3444 2.55113 10.4078C2.67882 8.47126 3.4291 6.62785 4.69007 5.15252C5.95104 3.67719 7.65512 2.649 9.54819 2.22128Z" fill="#2D3648"/>
<path d="M22.2391 3.71249C22.6294 3.32177 22.6291 2.68861 22.2384 2.29828C21.8477 1.90795 21.2145 1.90827 20.8242 2.29898L11.5313 11.6012L9.23872 9.30863C8.8482 8.91811 8.21503 8.91811 7.82451 9.30863C7.43399 9.69916 7.43399 10.3323 7.82451 10.7228L10.8245 13.7228C11.0121 13.9104 11.2666 14.0158 11.5319 14.0157C11.7972 14.0157 12.0516 13.9102 12.2391 13.7225L22.2391 3.71249Z" fill="#2D3648"/>
</g>
</svg>
