<svg width="92" height="25" viewBox="0 0 92 25" fill="none" xmlns="http://www.w3.org/2000/svg">
<rect width="92" height="25" rx="12" fill="#DBEBCE"/>
<path d="M11.4943 18H7.88494V7.81818H11.5241C12.5483 7.81818 13.4299 8.02202 14.169 8.42969C14.9081 8.83404 15.4766 9.41572 15.8743 10.1747C16.2753 10.9337 16.4759 11.8419 16.4759 12.8991C16.4759 13.9598 16.2753 14.8712 15.8743 15.6335C15.4766 16.3958 14.9048 16.9808 14.1591 17.3885C13.4167 17.7962 12.5284 18 11.4943 18ZM10.0376 16.1555H11.4048C12.0412 16.1555 12.5765 16.0429 13.0107 15.8175C13.4482 15.5888 13.7763 15.2358 13.995 14.7585C14.2171 14.2779 14.3281 13.6581 14.3281 12.8991C14.3281 12.1468 14.2171 11.532 13.995 11.0547C13.7763 10.5774 13.4498 10.2261 13.0156 10.0007C12.5814 9.77533 12.0462 9.66264 11.4098 9.66264H10.0376V16.1555ZM18.0705 18V7.81818H24.9313V9.59304H20.2232V12.0192H24.5783V13.794H20.2232V16.2251H24.9512V18H18.0705ZM26.6428 18V7.81818H28.7955V16.2251H33.1605V18H26.6428ZM36.7388 7.81818V18H34.5861V7.81818H36.7388ZM40.3494 7.81818L42.8104 15.554H42.9048L45.3707 7.81818H47.7571L44.2472 18H41.473L37.9581 7.81818H40.3494ZM48.9826 18V7.81818H55.8434V9.59304H51.1353V12.0192H55.4904V13.794H51.1353V16.2251H55.8633V18H48.9826ZM57.5549 18V7.81818H61.5719C62.3409 7.81818 62.9971 7.95573 63.5407 8.23082C64.0875 8.5026 64.5035 8.88873 64.7885 9.3892C65.0769 9.88636 65.2211 10.4714 65.2211 11.1442C65.2211 11.8203 65.0752 12.402 64.7836 12.8892C64.4919 13.3731 64.0693 13.7443 63.5158 14.0028C62.9656 14.2614 62.2994 14.3906 61.5172 14.3906H58.8276V12.6605H61.1692C61.5802 12.6605 61.9216 12.6042 62.1934 12.4915C62.4651 12.3788 62.6673 12.2098 62.7999 11.9844C62.9358 11.759 63.0037 11.4789 63.0037 11.1442C63.0037 10.8061 62.9358 10.5211 62.7999 10.2891C62.6673 10.0571 62.4635 9.88139 62.1884 9.76207C61.9166 9.63944 61.5736 9.57812 61.1593 9.57812H59.7076V18H57.5549ZM63.0534 13.3665L65.584 18H63.2076L60.7317 13.3665H63.0534ZM66.7424 18V7.81818H73.6032V9.59304H68.8951V12.0192H73.2502V13.794H68.8951V16.2251H73.623V18H66.7424ZM78.924 18H75.3146V7.81818H78.9538C79.978 7.81818 80.8596 8.02202 81.5987 8.42969C82.3378 8.83404 82.9063 9.41572 83.304 10.1747C83.705 10.9337 83.9055 11.8419 83.9055 12.8991C83.9055 13.9598 83.705 14.8712 83.304 15.6335C82.9063 16.3958 82.3345 16.9808 81.5888 17.3885C80.8464 17.7962 79.9581 18 78.924 18ZM77.4673 16.1555H78.8345C79.4709 16.1555 80.0062 16.0429 80.4403 15.8175C80.8778 15.5888 81.206 15.2358 81.4247 14.7585C81.6468 14.2779 81.7578 13.6581 81.7578 12.8991C81.7578 12.1468 81.6468 11.532 81.4247 11.0547C81.206 10.5774 80.8795 10.2261 80.4453 10.0007C80.0111 9.77533 79.4759 9.66264 78.8395 9.66264H77.4673V16.1555Z" fill="#076030"/>
</svg>
