<svg width="94" height="25" viewBox="0 0 94 25" fill="none" xmlns="http://www.w3.org/2000/svg">
<rect width="94" height="25" rx="12" fill="#FFE0C4"/>
<path d="M10.0376 7.81818V18H7.88494V7.81818H10.0376ZM20.3251 7.81818V18H18.4657L14.036 11.5916H13.9615V18H11.8088V7.81818H13.698L18.0929 14.2216H18.1824V7.81818H20.3251ZM24.9561 9.59304V7.81818H33.3184V9.59304H30.2012V18H28.0733V9.59304H24.9561ZM34.6955 18V7.81818H38.7125C39.4815 7.81818 40.1377 7.95573 40.6813 8.23082C41.2282 8.5026 41.6441 8.88873 41.9292 9.3892C42.2175 9.88636 42.3617 10.4714 42.3617 11.1442C42.3617 11.8203 42.2159 12.402 41.9242 12.8892C41.6325 13.3731 41.2099 13.7443 40.6564 14.0028C40.1062 14.2614 39.44 14.3906 38.6578 14.3906H35.9682V12.6605H38.3098C38.7208 12.6605 39.0622 12.6042 39.334 12.4915C39.6058 12.3788 39.8079 12.2098 39.9405 11.9844C40.0764 11.759 40.1444 11.4789 40.1444 11.1442C40.1444 10.8061 40.0764 10.5211 39.9405 10.2891C39.8079 10.0571 39.6041 9.88139 39.329 9.76207C39.0572 9.63944 38.7142 9.57812 38.2999 9.57812H36.8482V18H34.6955ZM40.1941 13.3665L42.7246 18H40.3482L37.8723 13.3665H40.1941ZM45.638 18H43.3311L46.8461 7.81818H49.6202L53.1301 18H50.8233L48.2729 10.1449H48.1934L45.638 18ZM45.4938 13.9979H50.9426V15.6783H45.4938V13.9979ZM62.872 7.81818V18H61.0126L56.5829 11.5916H56.5083V18H54.3556V7.81818H56.2449L60.6397 14.2216H60.7292V7.81818H62.872ZM70.174 10.7464C70.1342 10.3454 69.9635 10.0339 69.6619 9.81179C69.3603 9.58972 68.951 9.47869 68.4339 9.47869C68.0826 9.47869 67.786 9.52841 67.544 9.62784C67.3021 9.72396 67.1165 9.85819 66.9872 10.0305C66.8613 10.2029 66.7983 10.3984 66.7983 10.6172C66.7917 10.7995 66.8298 10.9586 66.9126 11.0945C66.9988 11.2304 67.1165 11.348 67.2656 11.4474C67.4148 11.5436 67.5871 11.6281 67.7827 11.701C67.9782 11.7706 68.187 11.8303 68.4091 11.88L69.3239 12.0987C69.768 12.1982 70.1757 12.3307 70.5469 12.4964C70.9181 12.6622 71.2396 12.866 71.5114 13.108C71.7831 13.3499 71.9936 13.6349 72.1428 13.9631C72.2952 14.2912 72.3731 14.6674 72.3764 15.0916C72.3731 15.7147 72.214 16.255 71.8991 16.7124C71.5876 17.1664 71.1368 17.5194 70.5469 17.7713C69.9602 18.0199 69.2526 18.1442 68.424 18.1442C67.602 18.1442 66.8861 18.0182 66.2763 17.7663C65.6697 17.5144 65.1958 17.1416 64.8544 16.6477C64.5163 16.1506 64.339 15.5357 64.3224 14.8033H66.4055C66.4287 15.1446 66.5265 15.4297 66.6989 15.6584C66.8745 15.8838 67.1082 16.0545 67.3999 16.1705C67.6948 16.2831 68.0279 16.3395 68.3991 16.3395C68.7637 16.3395 69.0803 16.2865 69.3487 16.1804C69.6205 16.0743 69.831 15.9268 69.9801 15.7379C70.1293 15.549 70.2038 15.3319 70.2038 15.0866C70.2038 14.858 70.1359 14.6657 70 14.5099C69.8674 14.3542 69.6719 14.2216 69.4134 14.1122C69.1581 14.0028 68.8449 13.9034 68.4737 13.8139L67.3651 13.5355C66.5066 13.3267 65.8288 13.0002 65.3317 12.5561C64.8345 12.112 64.5876 11.5137 64.5909 10.7614C64.5876 10.1449 64.7517 9.6063 65.0831 9.1456C65.4179 8.6849 65.8769 8.32528 66.4602 8.06676C67.0436 7.80824 67.7064 7.67898 68.4489 7.67898C69.2045 7.67898 69.8641 7.80824 70.4276 8.06676C70.9943 8.32528 71.4351 8.6849 71.75 9.1456C72.0649 9.6063 72.2273 10.1399 72.2372 10.7464H70.174ZM75.9771 7.81818V18H73.8244V7.81818H75.9771ZM77.3604 9.59304V7.81818H85.7227V9.59304H82.6055V18H80.4776V9.59304H77.3604Z" fill="#78502B"/>
</svg>
