<svg width="113" height="85" viewBox="0 0 113 85" fill="none" xmlns="http://www.w3.org/2000/svg">
<path d="M113 59.6388C113 62.9688 111.677 66.1623 109.323 68.517C106.968 70.8716 103.774 72.1944 100.444 72.1944H12.5556C9.22561 72.1944 6.03206 70.8716 3.67744 68.517C1.32281 66.1623 0 62.9688 0 59.6388V50.2222C0 46.8922 1.32281 43.6987 3.67744 41.3441C6.03206 38.9894 9.22561 37.6666 12.5556 37.6666H100.444C103.774 37.6666 106.968 38.9894 109.323 41.3441C111.677 43.6987 113 46.8922 113 50.2222V59.6388Z" fill="#DE5654"/>
<path d="M59.6389 15.6946L56.5659 12.5557H22.4305C12.5556 12.5557 9.41667 18.8334 9.41667 18.8334L0 37.5381V53.3612H59.6389V15.6946Z" fill="#FBD063"/>
<path d="M28.2501 37.6666H6.27783L12.5556 25.111C12.5556 25.111 15.6945 18.8333 21.9723 18.8333H28.2501V37.6666Z" fill="#2D4EA2"/>
<path d="M28.2499 84.75C35.1841 84.75 40.8054 79.1287 40.8054 72.1945C40.8054 65.2602 35.1841 59.6389 28.2499 59.6389C21.3156 59.6389 15.6943 65.2602 15.6943 72.1945C15.6943 79.1287 21.3156 84.75 28.2499 84.75Z" fill="#2D3648"/>
<path d="M28.2499 78.4723C31.7171 78.4723 34.5277 75.6616 34.5277 72.1945C34.5277 68.7274 31.7171 65.9167 28.2499 65.9167C24.7828 65.9167 21.9722 68.7274 21.9722 72.1945C21.9722 75.6616 24.7828 78.4723 28.2499 78.4723Z" fill="#CBD2E0"/>
<path d="M84.7499 84.75C91.6841 84.75 97.3054 79.1287 97.3054 72.1945C97.3054 65.2602 91.6841 59.6389 84.7499 59.6389C77.8156 59.6389 72.1943 65.2602 72.1943 72.1945C72.1943 79.1287 77.8156 84.75 84.7499 84.75Z" fill="#2D3648"/>
<path d="M84.7499 78.4723C88.2171 78.4723 91.0277 75.6616 91.0277 72.1945C91.0277 68.7274 88.2171 65.9167 84.7499 65.9167C81.2828 65.9167 78.4722 68.7274 78.4722 72.1945C78.4722 75.6616 81.2828 78.4723 84.7499 78.4723Z" fill="#CBD2E0"/>
<path d="M100.445 0H53.3612C50.0313 0 46.8377 1.32281 44.4831 3.67744C42.1285 6.03206 40.8057 9.22561 40.8057 12.5556V53.3611H113V12.5556C113 9.22561 111.677 6.03206 109.323 3.67744C106.968 1.32281 103.774 0 100.445 0Z" fill="#CBD2E0"/>
</svg>
