<svg width="85" height="26" viewBox="0 0 85 26" fill="none" xmlns="http://www.w3.org/2000/svg">
<rect width="85" height="26" rx="6" fill="#F1A155"/>
<path d="M16.1682 17.0625C16.6963 17.0625 17.1227 16.6438 17.1227 16.125C17.1227 15.6062 16.6963 15.1875 16.1682 15.1875C15.64 15.1875 15.2136 15.6062 15.2136 16.125C15.2136 16.6438 15.64 17.0625 16.1682 17.0625ZM17.1227 11.4375H15.5318V13H18.37L17.1227 11.4375ZM8.53179 17.0625C9.05998 17.0625 9.48634 16.6438 9.48634 16.125C9.48634 15.6062 9.05998 15.1875 8.53179 15.1875C8.00361 15.1875 7.57725 15.6062 7.57725 16.125C7.57725 16.6438 8.00361 17.0625 8.53179 17.0625ZM17.4409 10.5L19.35 13V16.125H18.0772C18.0772 17.1625 17.2245 18 16.1682 18C15.1118 18 14.2591 17.1625 14.2591 16.125H10.4409C10.4409 17.1625 9.58816 18 8.53179 18C7.47543 18 6.6227 17.1625 6.6227 16.125H5.34998V9.25C5.34998 8.55625 5.91634 8 6.6227 8H15.5318V10.5H17.4409ZM6.6227 9.25V14.875H7.10634C7.45634 14.4938 7.96543 14.25 8.53179 14.25C9.09816 14.25 9.60725 14.4938 9.95725 14.875H14.2591V9.25H6.6227ZM11.0772 9.875L13.3045 12.0625L11.0772 14.25V12.6875H7.89543V11.4375H11.0772V9.875Z" fill="#FEFEFE"/>
<path d="M26.1697 9.72727V17H24.6321V9.72727H26.1697ZM33.4179 9.72727V17H32.0898L28.9257 12.4226H28.8725V17H27.3348V9.72727H28.6843L31.8235 14.3011H31.8874V9.72727H33.4179ZM36.5258 10.995V9.72727H42.4988V10.995H40.2723V17H38.7524V10.995H36.5258ZM43.3825 17V9.72727H46.2518C46.8011 9.72727 47.2698 9.82552 47.6581 10.022C48.0487 10.2161 48.3458 10.492 48.5494 10.8494C48.7554 11.2045 48.8583 11.6224 48.8583 12.103C48.8583 12.5859 48.7542 13.0014 48.5458 13.3494C48.3375 13.6951 48.0357 13.9602 47.6403 14.1449C47.2473 14.3295 46.7715 14.4219 46.2127 14.4219H44.2916V13.1861H45.9642C46.2577 13.1861 46.5016 13.1458 46.6957 13.0653C46.8898 12.9848 47.0342 12.8641 47.1289 12.7031C47.226 12.5421 47.2745 12.3421 47.2745 12.103C47.2745 11.8615 47.226 11.6579 47.1289 11.4922C47.0342 11.3265 46.8886 11.201 46.6922 11.1158C46.498 11.0282 46.253 10.9844 45.9571 10.9844H44.9201V17H43.3825ZM47.3101 13.6903L49.1176 17H47.4201L45.6517 13.6903H47.3101ZM51.0985 17H49.4508L51.9615 9.72727H53.943L56.4501 17H54.8024L52.9806 11.3892H52.9238L51.0985 17ZM50.9956 14.1413H54.8876V15.3416H50.9956V14.1413ZM63.3086 9.72727V17H61.9804L58.8164 12.4226H58.7631V17H57.2255V9.72727H58.5749L61.7141 14.3011H61.778V9.72727H63.3086ZM68.4243 11.8189C68.3959 11.5324 68.274 11.3099 68.0585 11.1513C67.8431 10.9927 67.5507 10.9134 67.1814 10.9134C66.9304 10.9134 66.7186 10.9489 66.5457 11.0199C66.3729 11.0885 66.2403 11.1844 66.148 11.3075C66.058 11.4306 66.0131 11.5703 66.0131 11.7266C66.0083 11.8568 66.0356 11.9704 66.0947 12.0675C66.1563 12.1645 66.2403 12.2486 66.3469 12.3196C66.4534 12.3883 66.5765 12.4486 66.7162 12.5007C66.8559 12.5504 67.005 12.593 67.1636 12.6286L67.817 12.7848C68.1343 12.8558 68.4255 12.9505 68.6906 13.0689C68.9558 13.1873 69.1854 13.3329 69.3795 13.5057C69.5737 13.6785 69.724 13.8821 69.8305 14.1165C69.9394 14.3509 69.9951 14.6196 69.9974 14.9226C69.9951 15.3677 69.8814 15.7536 69.6565 16.0803C69.434 16.4046 69.112 16.6567 68.6906 16.8366C68.2716 17.0142 67.7661 17.103 67.1743 17.103C66.5872 17.103 66.0758 17.013 65.6402 16.8331C65.207 16.6532 64.8684 16.3868 64.6246 16.0341C64.3831 15.679 64.2564 15.2398 64.2446 14.7166H65.7325C65.7491 14.9605 65.8189 15.1641 65.942 15.3274C66.0675 15.4884 66.2344 15.6103 66.4428 15.6932C66.6535 15.7737 66.8914 15.8139 67.1565 15.8139C67.4169 15.8139 67.643 15.776 67.8348 15.7003C68.0289 15.6245 68.1793 15.5192 68.2858 15.3842C68.3923 15.2493 68.4456 15.0942 68.4456 14.919C68.4456 14.7557 68.3971 14.6184 68.3 14.5071C68.2053 14.3958 68.0656 14.3011 67.881 14.223C67.6987 14.1449 67.475 14.0739 67.2098 14.0099L66.4179 13.8111C65.8047 13.6619 65.3206 13.4287 64.9655 13.1115C64.6104 12.7943 64.434 12.367 64.4364 11.8295C64.434 11.3892 64.5512 11.0045 64.7879 10.6754C65.027 10.3464 65.3549 10.0895 65.7716 9.90483C66.1883 9.72017 66.6617 9.62784 67.192 9.62784C67.7318 9.62784 68.2029 9.72017 68.6054 9.90483C69.0102 10.0895 69.3251 10.3464 69.55 10.6754C69.7749 11.0045 69.8909 11.3857 69.898 11.8189H68.4243ZM72.4694 9.72727V17H70.9317V9.72727H72.4694ZM73.3575 10.995V9.72727H79.3305V10.995H77.1039V17H75.584V10.995H73.3575Z" fill="#FEFEFE"/>
</svg>
